<?xml version="1.0" encoding="UTF-8"?><svg xmlns="http://www.w3.org/2000/svg" xmlns:xlink="http://www.w3.org/1999/xlink" fill-opacity="1" color-rendering="auto" color-interpolation="auto" text-rendering="auto" stroke="black" stroke-linecap="square" width="1280" stroke-miterlimit="10" shape-rendering="auto" stroke-opacity="1" fill="black" stroke-dasharray="none" font-weight="normal" stroke-width="1" height="797" font-family="'Dialog'" font-style="normal" stroke-linejoin="miter" font-size="12px" stroke-dashoffset="0" image-rendering="auto">
  <!--Generated by ySVG 2.5-->
  <defs id="genericDefs"/>
  <g>
    <defs id="defs1">
      <linearGradient x1="485.9313" gradientUnits="userSpaceOnUse" x2="565.9313" y1="26.7417" y2="66.7417" id="linearGradient1" spreadMethod="reflect">
        <stop stop-opacity="1" stop-color="rgb(232,238,247)" offset="0%"/>
        <stop stop-opacity="1" stop-color="rgb(183,201,227)" offset="100%"/>
      </linearGradient>
      <linearGradient x1="231.3808" gradientUnits="userSpaceOnUse" x2="311.3809" y1="189.2858" y2="229.2858" id="linearGradient2" spreadMethod="reflect">
        <stop stop-opacity="1" stop-color="rgb(232,238,247)" offset="0%"/>
        <stop stop-opacity="1" stop-color="rgb(183,201,227)" offset="100%"/>
      </linearGradient>
      <linearGradient x1="341.3809" gradientUnits="userSpaceOnUse" x2="527.2009" y1="189.2858" y2="229.2858" id="linearGradient3" spreadMethod="reflect">
        <stop stop-opacity="1" stop-color="rgb(232,238,247)" offset="0%"/>
        <stop stop-opacity="1" stop-color="rgb(183,201,227)" offset="100%"/>
      </linearGradient>
      <linearGradient x1="667.2009" gradientUnits="userSpaceOnUse" x2="762.1653" y1="189.2858" y2="229.2858" id="linearGradient4" spreadMethod="reflect">
        <stop stop-opacity="1" stop-color="rgb(232,238,247)" offset="0%"/>
        <stop stop-opacity="1" stop-color="rgb(183,201,227)" offset="100%"/>
      </linearGradient>
      <linearGradient x1="191.8832" gradientUnits="userSpaceOnUse" x2="428.0059" y1="339.806" y2="379.806" id="linearGradient5" spreadMethod="reflect">
        <stop stop-opacity="1" stop-color="rgb(232,238,247)" offset="0%"/>
        <stop stop-opacity="1" stop-color="rgb(183,201,227)" offset="100%"/>
      </linearGradient>
      <linearGradient x1="836.4764" gradientUnits="userSpaceOnUse" x2="955.5795" y1="339.806" y2="379.806" id="linearGradient6" spreadMethod="reflect">
        <stop stop-opacity="1" stop-color="rgb(232,238,247)" offset="0%"/>
        <stop stop-opacity="1" stop-color="rgb(183,201,227)" offset="100%"/>
      </linearGradient>
      <linearGradient x1="1340.2932" gradientUnits="userSpaceOnUse" x2="1420.2932" y1="481.7661" y2="521.7661" id="linearGradient7" spreadMethod="reflect">
        <stop stop-opacity="1" stop-color="rgb(232,238,247)" offset="0%"/>
        <stop stop-opacity="1" stop-color="rgb(204,255,204)" offset="100%"/>
      </linearGradient>
      <linearGradient x1="776.6617" gradientUnits="userSpaceOnUse" x2="881.8615" y1="481.7661" y2="521.7661" id="linearGradient8" spreadMethod="reflect">
        <stop stop-opacity="1" stop-color="rgb(232,238,247)" offset="0%"/>
        <stop stop-opacity="1" stop-color="rgb(183,201,227)" offset="100%"/>
      </linearGradient>
      <linearGradient x1="985.5795" gradientUnits="userSpaceOnUse" x2="1104.6825" y1="339.806" y2="379.806" id="linearGradient9" spreadMethod="reflect">
        <stop stop-opacity="1" stop-color="rgb(232,238,247)" offset="0%"/>
        <stop stop-opacity="1" stop-color="rgb(183,201,227)" offset="100%"/>
      </linearGradient>
      <linearGradient x1="569.1578" gradientUnits="userSpaceOnUse" x2="674.3575" y1="605.5502" y2="645.5502" id="linearGradient10" spreadMethod="reflect">
        <stop stop-opacity="1" stop-color="rgb(232,238,247)" offset="0%"/>
        <stop stop-opacity="1" stop-color="rgb(183,201,227)" offset="100%"/>
      </linearGradient>
      <linearGradient x1="1069.1488" gradientUnits="userSpaceOnUse" x2="1196.1488" y1="481.7661" y2="521.7661" id="linearGradient11" spreadMethod="reflect">
        <stop stop-opacity="1" stop-color="rgb(232,238,247)" offset="0%"/>
        <stop stop-opacity="1" stop-color="rgb(183,201,227)" offset="100%"/>
      </linearGradient>
      <linearGradient x1="1212.2932" gradientUnits="userSpaceOnUse" x2="1420.2932" y1="605.5502" y2="645.5502" id="linearGradient12" spreadMethod="reflect">
        <stop stop-opacity="1" stop-color="rgb(232,238,247)" offset="0%"/>
        <stop stop-opacity="1" stop-color="rgb(183,201,227)" offset="100%"/>
      </linearGradient>
      <linearGradient x1="1204.3972" gradientUnits="userSpaceOnUse" x2="1385.3972" y1="752.1669" y2="792.1669" id="linearGradient13" spreadMethod="reflect">
        <stop stop-opacity="1" stop-color="rgb(232,238,247)" offset="0%"/>
        <stop stop-opacity="1" stop-color="rgb(183,201,227)" offset="100%"/>
      </linearGradient>
      <linearGradient x1="516.9313" gradientUnits="userSpaceOnUse" x2="690.9313" y1="481.7661" y2="521.7661" id="linearGradient14" spreadMethod="reflect">
        <stop stop-opacity="1" stop-color="rgb(232,238,247)" offset="0%"/>
        <stop stop-opacity="1" stop-color="rgb(183,201,227)" offset="100%"/>
      </linearGradient>
      <linearGradient x1="864.0432" gradientUnits="userSpaceOnUse" x2="1025.2932" y1="605.5502" y2="645.5502" id="linearGradient15" spreadMethod="reflect">
        <stop stop-opacity="1" stop-color="rgb(232,238,247)" offset="0%"/>
        <stop stop-opacity="1" stop-color="rgb(183,201,227)" offset="100%"/>
      </linearGradient>
      <linearGradient x1="1055.2932" gradientUnits="userSpaceOnUse" x2="1182.2932" y1="605.5502" y2="645.5502" id="linearGradient16" spreadMethod="reflect">
        <stop stop-opacity="1" stop-color="rgb(232,238,247)" offset="0%"/>
        <stop stop-opacity="1" stop-color="rgb(183,201,227)" offset="100%"/>
      </linearGradient>
      <linearGradient x1="704.3575" gradientUnits="userSpaceOnUse" x2="827.5099" y1="605.5502" y2="645.5502" id="linearGradient17" spreadMethod="reflect">
        <stop stop-opacity="1" stop-color="rgb(232,238,247)" offset="0%"/>
        <stop stop-opacity="1" stop-color="rgb(183,201,227)" offset="100%"/>
      </linearGradient>
      <linearGradient x1="458.0059" gradientUnits="userSpaceOnUse" x2="643.8259" y1="339.806" y2="379.806" id="linearGradient18" spreadMethod="reflect">
        <stop stop-opacity="1" stop-color="rgb(232,238,247)" offset="0%"/>
        <stop stop-opacity="1" stop-color="rgb(183,201,227)" offset="100%"/>
      </linearGradient>
      <clipPath clipPathUnits="userSpaceOnUse" id="clipPath1">
        <path d="M0 0 L1280 0 L1280 797 L0 797 L0 0 Z"/>
      </clipPath>
      <clipPath clipPathUnits="userSpaceOnUse" id="clipPath2">
        <path d="M176 11 L1456 11 L1456 808 L176 808 L176 11 Z"/>
      </clipPath>
    </defs>
    <g fill="white" text-rendering="geometricPrecision" shape-rendering="geometricPrecision" transform="translate(-176,-11)" stroke="white">
      <rect x="176" width="1280" height="797" y="11" clip-path="url(#clipPath2)" stroke="none"/>
    </g>
    <g fill="url(#linearGradient1)" text-rendering="geometricPrecision" shape-rendering="geometricPrecision" transform="matrix(1,0,0,1,-176,-11)" stroke="url(#linearGradient1)">
      <path d="M485.9313 26.7417 L565.9313 26.7417 L565.9313 66.7417 L485.9313 66.7417 Z" stroke="none" clip-path="url(#clipPath2)"/>
    </g>
    <g text-rendering="geometricPrecision" stroke-miterlimit="1.45" shape-rendering="geometricPrecision" transform="matrix(1,0,0,1,-176,-11)" stroke-linecap="butt">
      <path fill="none" d="M485.9313 26.7417 L565.9313 26.7417 L565.9313 66.7417 L485.9313 66.7417 Z" clip-path="url(#clipPath2)"/>
      <text x="512.9264" xml:space="preserve" y="51.4556" clip-path="url(#clipPath2)" font-family="sans-serif" stroke="none">main</text>
    </g>
    <g fill="url(#linearGradient2)" text-rendering="geometricPrecision" shape-rendering="geometricPrecision" transform="matrix(1,0,0,1,-176,-11)" stroke="url(#linearGradient2)">
      <path d="M231.3808 189.2858 L311.3809 189.2858 L311.3809 229.2858 L231.3808 229.2858 Z" stroke="none" clip-path="url(#clipPath2)"/>
    </g>
    <g text-rendering="geometricPrecision" stroke-miterlimit="1.45" shape-rendering="geometricPrecision" transform="matrix(1,0,0,1,-176,-11)" stroke-linecap="butt">
      <path fill="none" d="M231.3808 189.2858 L311.3809 189.2858 L311.3809 229.2858 L231.3808 229.2858 Z" clip-path="url(#clipPath2)"/>
      <text x="242.3652" xml:space="preserve" y="213.9997" clip-path="url(#clipPath2)" font-family="sans-serif" stroke="none">printUsage</text>
    </g>
    <g fill="url(#linearGradient3)" text-rendering="geometricPrecision" shape-rendering="geometricPrecision" transform="matrix(1,0,0,1,-176,-11)" stroke="url(#linearGradient3)">
      <path d="M341.3809 189.2858 L527.2009 189.2858 L527.2009 229.2858 L341.3809 229.2858 Z" stroke="none" clip-path="url(#clipPath2)"/>
    </g>
    <g text-rendering="geometricPrecision" stroke-miterlimit="1.45" shape-rendering="geometricPrecision" transform="matrix(1,0,0,1,-176,-11)" stroke-linecap="butt">
      <path fill="none" d="M341.3809 189.2858 L527.2009 189.2858 L527.2009 229.2858 L341.3809 229.2858 Z" clip-path="url(#clipPath2)"/>
      <text x="346.2508" xml:space="preserve" y="213.9997" clip-path="url(#clipPath2)" font-family="sans-serif" stroke="none">readPlaceholdersFromProperties</text>
    </g>
    <g fill="url(#linearGradient4)" text-rendering="geometricPrecision" shape-rendering="geometricPrecision" transform="matrix(1,0,0,1,-176,-11)" stroke="url(#linearGradient4)">
      <path d="M667.2009 189.2858 L762.1653 189.2858 L762.1653 229.2858 L667.2009 229.2858 Z" stroke="none" clip-path="url(#clipPath2)"/>
    </g>
    <g text-rendering="geometricPrecision" stroke-miterlimit="1.45" shape-rendering="geometricPrecision" transform="matrix(1,0,0,1,-176,-11)" stroke-linecap="butt">
      <path fill="none" d="M667.2009 189.2858 L762.1653 189.2858 L762.1653 229.2858 L667.2009 229.2858 Z" clip-path="url(#clipPath2)"/>
      <text x="669.6772" xml:space="preserve" y="213.9997" clip-path="url(#clipPath2)" font-family="sans-serif" stroke="none">processFileOrDir</text>
    </g>
    <g fill="url(#linearGradient5)" text-rendering="geometricPrecision" shape-rendering="geometricPrecision" transform="matrix(1,0,0,1,-176,-11)" stroke="url(#linearGradient5)">
      <path d="M191.8832 339.806 L428.0059 339.806 L428.0059 379.806 L191.8832 379.806 Z" stroke="none" clip-path="url(#clipPath2)"/>
    </g>
    <g text-rendering="geometricPrecision" stroke-miterlimit="1.45" shape-rendering="geometricPrecision" transform="matrix(1,0,0,1,-176,-11)" stroke-linecap="butt">
      <path fill="none" d="M191.8832 339.806 L428.0059 339.806 L428.0059 379.806 L191.8832 379.806 Z" clip-path="url(#clipPath2)"/>
      <text x="198.9123" xml:space="preserve" y="364.5199" clip-path="url(#clipPath2)" font-family="sans-serif" stroke="none">getNextFileNameFromFileTemplateName</text>
    </g>
    <g fill="url(#linearGradient6)" text-rendering="geometricPrecision" shape-rendering="geometricPrecision" transform="matrix(1,0,0,1,-176,-11)" stroke="url(#linearGradient6)">
      <path d="M836.4764 339.806 L955.5795 339.806 L955.5795 379.806 L836.4764 379.806 Z" stroke="none" clip-path="url(#clipPath2)"/>
    </g>
    <g text-rendering="geometricPrecision" stroke-miterlimit="1.45" shape-rendering="geometricPrecision" transform="matrix(1,0,0,1,-176,-11)" stroke-linecap="butt">
      <path fill="none" d="M836.4764 339.806 L955.5795 339.806 L955.5795 379.806 L836.4764 379.806 Z" clip-path="url(#clipPath2)"/>
      <text x="842.6783" xml:space="preserve" y="364.5199" clip-path="url(#clipPath2)" font-family="sans-serif" stroke="none">replaceDirWithCopy</text>
    </g>
    <g fill="url(#linearGradient7)" text-rendering="geometricPrecision" shape-rendering="geometricPrecision" transform="matrix(1,0,0,1,-176,-11)" stroke="url(#linearGradient7)">
      <path d="M1340.2932 481.7661 L1420.2932 481.7661 L1420.2932 521.7661 L1340.2932 521.7661 Z" stroke="none" clip-path="url(#clipPath2)"/>
    </g>
    <g text-rendering="geometricPrecision" stroke-miterlimit="1.45" shape-rendering="geometricPrecision" transform="matrix(1,0,0,1,-176,-11)" stroke-linecap="butt">
      <path fill="none" d="M1340.2932 481.7661 L1420.2932 481.7661 L1420.2932 521.7661 L1340.2932 521.7661 Z" clip-path="url(#clipPath2)"/>
      <text x="1349.6018" xml:space="preserve" y="506.4799" clip-path="url(#clipPath2)" font-family="sans-serif" stroke="none">deepDelete</text>
    </g>
    <g fill="url(#linearGradient8)" text-rendering="geometricPrecision" shape-rendering="geometricPrecision" transform="matrix(1,0,0,1,-176,-11)" stroke="url(#linearGradient8)">
      <path d="M776.6617 481.7661 L881.8615 481.7661 L881.8615 521.7661 L776.6617 521.7661 Z" stroke="none" clip-path="url(#clipPath2)"/>
    </g>
    <g text-rendering="geometricPrecision" stroke-miterlimit="1.45" shape-rendering="geometricPrecision" transform="matrix(1,0,0,1,-176,-11)" stroke-linecap="butt">
      <path fill="none" d="M776.6617 481.7661 L881.8615 481.7661 L881.8615 521.7661 L776.6617 521.7661 Z" clip-path="url(#clipPath2)"/>
      <text x="780.9042" xml:space="preserve" y="506.4799" clip-path="url(#clipPath2)" font-family="sans-serif" stroke="none">replaceDirContent</text>
    </g>
    <g fill="url(#linearGradient9)" text-rendering="geometricPrecision" shape-rendering="geometricPrecision" transform="matrix(1,0,0,1,-176,-11)" stroke="url(#linearGradient9)">
      <path d="M985.5795 339.806 L1104.6825 339.806 L1104.6825 379.806 L985.5795 379.806 Z" stroke="none" clip-path="url(#clipPath2)"/>
    </g>
    <g text-rendering="geometricPrecision" stroke-miterlimit="1.45" shape-rendering="geometricPrecision" transform="matrix(1,0,0,1,-176,-11)" stroke-linecap="butt">
      <path fill="none" d="M985.5795 339.806 L1104.6825 339.806 L1104.6825 379.806 L985.5795 379.806 Z" clip-path="url(#clipPath2)"/>
      <text x="989.7775" xml:space="preserve" y="364.5199" clip-path="url(#clipPath2)" font-family="sans-serif" stroke="none">replaceFileWithCopy</text>
    </g>
    <g fill="url(#linearGradient10)" text-rendering="geometricPrecision" shape-rendering="geometricPrecision" transform="matrix(1,0,0,1,-176,-11)" stroke="url(#linearGradient10)">
      <path d="M569.1578 605.5502 L674.3575 605.5502 L674.3575 645.5502 L569.1578 645.5502 Z" stroke="none" clip-path="url(#clipPath2)"/>
    </g>
    <g text-rendering="geometricPrecision" stroke-miterlimit="1.45" shape-rendering="geometricPrecision" transform="matrix(1,0,0,1,-176,-11)" stroke-linecap="butt">
      <path fill="none" d="M569.1578 605.5502 L674.3575 605.5502 L674.3575 645.5502 L569.1578 645.5502 Z" clip-path="url(#clipPath2)"/>
      <text x="594.4032" xml:space="preserve" y="630.2641" clip-path="url(#clipPath2)" font-family="sans-serif" stroke="none">deepCopy</text>
    </g>
    <g fill="url(#linearGradient11)" text-rendering="geometricPrecision" shape-rendering="geometricPrecision" transform="matrix(1,0,0,1,-176,-11)" stroke="url(#linearGradient11)">
      <path d="M1069.1488 481.7661 L1196.1488 481.7661 L1196.1488 521.7661 L1069.1488 521.7661 Z" stroke="none" clip-path="url(#clipPath2)"/>
    </g>
    <g text-rendering="geometricPrecision" stroke-miterlimit="1.45" shape-rendering="geometricPrecision" transform="matrix(1,0,0,1,-176,-11)" stroke-linecap="butt">
      <path fill="none" d="M1069.1488 481.7661 L1196.1488 481.7661 L1196.1488 521.7661 L1069.1488 521.7661 Z" clip-path="url(#clipPath2)"/>
      <text x="1082.2875" xml:space="preserve" y="506.4799" clip-path="url(#clipPath2)" font-family="sans-serif" stroke="none">replaceFileContent</text>
    </g>
    <g fill="url(#linearGradient12)" text-rendering="geometricPrecision" shape-rendering="geometricPrecision" transform="matrix(1,0,0,1,-176,-11)" stroke="url(#linearGradient12)">
      <path d="M1212.2932 605.5502 L1420.2932 605.5502 L1420.2932 645.5502 L1212.2932 645.5502 Z" stroke="none" clip-path="url(#clipPath2)"/>
    </g>
    <g text-rendering="geometricPrecision" stroke-miterlimit="1.45" shape-rendering="geometricPrecision" transform="matrix(1,0,0,1,-176,-11)" stroke-linecap="butt">
      <path fill="none" d="M1212.2932 605.5502 L1420.2932 605.5502 L1420.2932 645.5502 L1212.2932 645.5502 Z" clip-path="url(#clipPath2)"/>
      <text x="1222.5813" xml:space="preserve" y="630.2641" clip-path="url(#clipPath2)" font-family="sans-serif" stroke="none">processLinesWithPlaceholderBlock</text>
    </g>
    <g fill="url(#linearGradient13)" text-rendering="geometricPrecision" shape-rendering="geometricPrecision" transform="matrix(1,0,0,1,-176,-11)" stroke="url(#linearGradient13)">
      <path d="M1204.3972 752.1669 L1385.3972 752.1669 L1385.3972 792.1669 L1204.3972 792.1669 Z" stroke="none" clip-path="url(#clipPath2)"/>
    </g>
    <g text-rendering="geometricPrecision" stroke-miterlimit="1.45" shape-rendering="geometricPrecision" transform="matrix(1,0,0,1,-176,-11)" stroke-linecap="butt">
      <path fill="none" d="M1204.3972 752.1669 L1385.3972 752.1669 L1385.3972 792.1669 L1204.3972 792.1669 Z" clip-path="url(#clipPath2)"/>
      <text x="1213.8621" xml:space="preserve" y="776.8807" clip-path="url(#clipPath2)" font-family="sans-serif" stroke="none">replaceAllOccurrencesInString</text>
    </g>
    <g fill="url(#linearGradient14)" text-rendering="geometricPrecision" shape-rendering="geometricPrecision" transform="matrix(1,0,0,1,-176,-11)" stroke="url(#linearGradient14)">
      <path d="M516.9313 481.7661 L690.9313 481.7661 L690.9313 521.7661 L516.9313 521.7661 Z" stroke="none" clip-path="url(#clipPath2)"/>
    </g>
    <g text-rendering="geometricPrecision" stroke-miterlimit="1.45" shape-rendering="geometricPrecision" transform="matrix(1,0,0,1,-176,-11)" stroke-linecap="butt">
      <path fill="none" d="M516.9313 481.7661 L690.9313 481.7661 L690.9313 521.7661 L516.9313 521.7661 Z" clip-path="url(#clipPath2)"/>
      <text x="531.2311" xml:space="preserve" y="506.4799" clip-path="url(#clipPath2)" font-family="sans-serif" stroke="none">getPlaceholdersFromString</text>
    </g>
    <g fill="url(#linearGradient15)" text-rendering="geometricPrecision" shape-rendering="geometricPrecision" transform="matrix(1,0,0,1,-176,-11)" stroke="url(#linearGradient15)">
      <path d="M864.0432 605.5502 L1025.2932 605.5502 L1025.2932 645.5502 L864.0432 645.5502 Z" stroke="none" clip-path="url(#clipPath2)"/>
    </g>
    <g text-rendering="geometricPrecision" stroke-miterlimit="1.45" shape-rendering="geometricPrecision" transform="matrix(1,0,0,1,-176,-11)" stroke-linecap="butt">
      <path fill="none" d="M864.0432 605.5502 L1025.2932 605.5502 L1025.2932 645.5502 L864.0432 645.5502 Z" clip-path="url(#clipPath2)"/>
      <text x="881.9583" xml:space="preserve" y="630.2641" clip-path="url(#clipPath2)" font-family="sans-serif" stroke="none">isBeginPlaceholderLine</text>
    </g>
    <g fill="url(#linearGradient16)" text-rendering="geometricPrecision" shape-rendering="geometricPrecision" transform="matrix(1,0,0,1,-176,-11)" stroke="url(#linearGradient16)">
      <path d="M1055.2932 605.5502 L1182.2932 605.5502 L1182.2932 645.5502 L1055.2932 645.5502 Z" stroke="none" clip-path="url(#clipPath2)"/>
    </g>
    <g text-rendering="geometricPrecision" stroke-miterlimit="1.45" shape-rendering="geometricPrecision" transform="matrix(1,0,0,1,-176,-11)" stroke-linecap="butt">
      <path fill="none" d="M1055.2932 605.5502 L1182.2932 605.5502 L1182.2932 645.5502 L1055.2932 645.5502 Z" clip-path="url(#clipPath2)"/>
      <text x="1060.7532" xml:space="preserve" y="630.2641" clip-path="url(#clipPath2)" font-family="sans-serif" stroke="none">isEndPlaceholderLine</text>
    </g>
    <g fill="url(#linearGradient17)" text-rendering="geometricPrecision" shape-rendering="geometricPrecision" transform="matrix(1,0,0,1,-176,-11)" stroke="url(#linearGradient17)">
      <path d="M704.3575 605.5502 L827.5099 605.5502 L827.5099 645.5502 L704.3575 645.5502 Z" stroke="none" clip-path="url(#clipPath2)"/>
    </g>
    <g text-rendering="geometricPrecision" stroke-miterlimit="1.45" shape-rendering="geometricPrecision" transform="matrix(1,0,0,1,-176,-11)" stroke-linecap="butt">
      <path fill="none" d="M704.3575 605.5502 L827.5099 605.5502 L827.5099 645.5502 L704.3575 645.5502 Z" clip-path="url(#clipPath2)"/>
      <text x="714.5792" xml:space="preserve" y="630.2641" clip-path="url(#clipPath2)" font-family="sans-serif" stroke="none">processDirContent </text>
    </g>
    <g fill="url(#linearGradient18)" text-rendering="geometricPrecision" shape-rendering="geometricPrecision" transform="matrix(1,0,0,1,-176,-11)" stroke="url(#linearGradient18)">
      <path d="M458.0059 339.806 L643.8259 339.806 L643.8259 379.806 L458.0059 379.806 Z" stroke="none" clip-path="url(#clipPath2)"/>
    </g>
    <g text-rendering="geometricPrecision" stroke-miterlimit="1.45" shape-rendering="geometricPrecision" transform="matrix(1,0,0,1,-176,-11)" stroke-linecap="butt">
      <path fill="none" d="M458.0059 339.806 L643.8259 339.806 L643.8259 379.806 L458.0059 379.806 Z" clip-path="url(#clipPath2)"/>
      <text x="463.2069" xml:space="preserve" y="364.5199" clip-path="url(#clipPath2)" font-family="sans-serif" stroke="none">getPlaceholdersFromFileContent</text>
    </g>
    <g text-rendering="geometricPrecision" stroke-miterlimit="1.45" shape-rendering="geometricPrecision" transform="matrix(1,0,0,1,-176,-11)" stroke-linecap="butt">
      <path fill="none" d="M494.6407 66.7224 L309.4376 184.9845" clip-path="url(#clipPath2)"/>
    </g>
    <g text-rendering="geometricPrecision" stroke-miterlimit="1.45" shape-rendering="geometricPrecision" transform="matrix(1,0,0,1,-176,-11)" stroke-linecap="butt">
      <path d="M302.695 189.29 L315.4998 187.0459 L310.2804 184.4463 L310.118 178.6176 Z" stroke="none" clip-path="url(#clipPath2)"/>
      <path fill="none" d="M514.6776 66.7026 L449.5045 182.3011" clip-path="url(#clipPath2)"/>
      <path d="M445.5756 189.2699 L455.8245 181.2723 L449.9956 181.43 L447.1135 176.3611 Z" clip-path="url(#clipPath2)" stroke="none"/>
      <path fill="none" d="M549.1335 66.7224 L685.4012 184.0697" clip-path="url(#clipPath2)"/>
      <path d="M691.4633 189.29 L685.6329 177.6708 L684.6435 183.4172 L679.1075 185.2483 Z" clip-path="url(#clipPath2)" stroke="none"/>
      <path fill="none" d="M667.1786 226.9525 L371.211 337.0213" clip-path="url(#clipPath2)"/>
      <path d="M363.7128 339.8098 L376.703 340.3134 L372.1483 336.6727 L373.2173 330.9406 Z" clip-path="url(#clipPath2)" stroke="none"/>
      <path fill="none" d="M738.7901 229.2951 L865.8028 334.7185" clip-path="url(#clipPath2)"/>
      <path d="M871.9586 339.8279 L865.9183 328.3164 L865.0333 334.0798 L859.5315 336.0111 Z" clip-path="url(#clipPath2)" stroke="none"/>
      <path fill="none" d="M762.1625 222.4296 L1107.1666 317.9375 L1343.95 477.3051" clip-path="url(#clipPath2)"/>
      <path d="M1350.5867 481.7721 L1343.4233 470.9237 L1343.1204 476.7468 L1337.8397 479.2196 Z" clip-path="url(#clipPath2)" stroke="none"/>
      <path fill="none" d="M955.5857 377.2651 L1332.6185 487.7904" clip-path="url(#clipPath2)"/>
      <path d="M1340.2954 490.0409 L1330.1865 481.8671 L1331.6588 487.5091 L1327.3734 491.4633 Z" clip-path="url(#clipPath2)" stroke="none"/>
      <path fill="none" d="M1340.3174 489.6341 L1338.7449 490.0555 L1335.1692 491.4008 L1331.7052 493.1129 L1328.3806 495.1938 L1325.2231 497.6457 L1322.3287 500.4031 L1319.7762 503.381 L1317.5676 506.5517 L1315.7052 509.8874 L1314.1909 513.3605 L1313.0269 516.9434 L1312.215 520.6082 L1311.7576 524.3274 L1311.6565 528.0733 L1311.9139 531.8181 L1312.5319 535.5343 L1313.5125 539.1941 L1314.8578 542.7698 L1316.5699 546.2338 L1318.6509 549.5583 L1321.1028 552.7158 L1323.8602 555.6103 L1326.8381 558.1628 L1330.0088 560.3713 L1333.3445 562.2337 L1336.8176 563.748 L1340.4004 564.9121 L1344.0653 565.7239 L1347.7844 566.1814 L1351.5304 566.2825 L1355.2751 566.025 L1358.9913 565.407 L1362.6511 564.4265 L1366.2269 563.0811 L1369.6909 561.369 L1373.0154 559.2881 L1376.1729 556.8362 L1379.0674 554.0787 L1381.6199 551.1008 L1383.8284 547.9302 L1385.6908 544.5945 L1387.2051 541.1213 L1388.3691 537.5385 L1389.181 533.8737 L1389.6384 530.1545 L1389.6492 529.7574 L1389.6404 529.6578" clip-path="url(#clipPath2)"/>
      <path d="M1389.3285 521.6639 L1384.8 533.8497 L1389.6793 530.6571 L1394.7925 533.4599 Z" clip-path="url(#clipPath2)" stroke="none"/>
      <path fill="none" d="M886.6226 379.8038 L842.0632 474.5471" clip-path="url(#clipPath2)"/>
      <path d="M838.6584 481.7864 L848.2902 473.0554 L842.4888 473.6422 L839.241 468.7995 Z" clip-path="url(#clipPath2)" stroke="none"/>
      <path fill="none" d="M758.611 229.2951 L993.9564 336.4958" clip-path="url(#clipPath2)"/>
      <path d="M1001.2366 339.812 L992.3889 330.2874 L993.0463 336.0812 L988.2435 339.3878 Z" clip-path="url(#clipPath2)" stroke="none"/>
      <path fill="none" d="M1092.386 379.8211 L1332.8967 481.6909" clip-path="url(#clipPath2)"/>
      <path d="M1340.2632 484.8111 L1331.1636 475.5269 L1331.976 481.3009 L1327.2634 484.7349 Z" clip-path="url(#clipPath2)" stroke="none"/>
      <path fill="none" d="M1092.386 379.8211 L1332.8967 481.6909" clip-path="url(#clipPath2)"/>
      <path d="M1340.2632 484.8111 L1331.1636 475.5269 L1331.976 481.3009 L1327.2634 484.7349 Z" clip-path="url(#clipPath2)" stroke="none"/>
      <path fill="none" d="M795.7499 521.7571 L662.1437 601.4584" clip-path="url(#clipPath2)"/>
      <path d="M655.2733 605.5569 L668.1404 603.7032 L663.0025 600.9461 L663.0173 595.1152 Z" clip-path="url(#clipPath2)" stroke="none"/>
      <path fill="none" d="M1057.4596 379.8038 L1116.1332 474.9765" clip-path="url(#clipPath2)"/>
      <path d="M1120.3314 481.7864 L1118.2903 468.9477 L1115.6084 474.1253 L1109.7778 474.1955 Z" clip-path="url(#clipPath2)" stroke="none"/>
      <path fill="none" d="M1162.3071 521.7571 L1279.9977 601.0854" clip-path="url(#clipPath2)"/>
      <path d="M1286.6313 605.5569 L1279.4755 594.7036 L1279.1685 600.5265 L1273.8861 602.9958 Z" clip-path="url(#clipPath2)" stroke="none"/>
      <path fill="none" d="M1338.1395 645.554 L1348.0625 654.4375 L1358.4 663.2518 L1368.4375 671.2106 L1378.1 678.1 L1387.3125 683.706 L1396 687.8148 L1404.0875 690.2125 L1411.5 690.6852 L1418.1625 689.019 L1424 685 L1428.95 678.5217 L1433 669.9074 L1436.15 659.5875 L1438.4 647.9926 L1439.75 635.5532 L1440.2 622.7 L1439.75 609.8634 L1438.4 597.4741 L1436.15 585.9625 L1433 575.7593 L1428.95 567.2949 L1424 561 L1418.1625 557.1972 L1411.5 555.7778 L1404.0875 556.525 L1396 559.2222 L1387.3125 563.6528 L1378.1 569.6 L1368.4375 576.8472 L1358.4 585.1778 L1348.0625 594.375 L1341.9304 600.0918 L1341.8583 600.161" clip-path="url(#clipPath2)"/>
      <path d="M1336.0253 605.636 L1348.1967 601.0692 L1342.5874 599.4766 L1341.353 593.7778 Z" clip-path="url(#clipPath2)" stroke="none"/>
      <path fill="none" d="M1313.3732 645.5597 L1298.9709 744.252" clip-path="url(#clipPath2)"/>
      <path d="M1297.8157 752.1681 L1304.4962 741.0159 L1299.1154 743.2625 L1294.601 739.5718 Z" clip-path="url(#clipPath2)" stroke="none"/>
      <path fill="none" d="M1144.6312 521.7358 L1278.7665 745.2835" clip-path="url(#clipPath2)"/>
      <path d="M1282.8826 752.1434 L1280.9958 739.281 L1278.252 744.426 L1272.421 744.4261 Z" clip-path="url(#clipPath2)" stroke="none"/>
      <path fill="none" d="M707.0986 229.3153 L614.3331 474.2963" clip-path="url(#clipPath2)"/>
      <path d="M611.5001 481.7779 L620.4255 472.3262 L614.6872 473.3611 L611.0735 468.7849 Z" clip-path="url(#clipPath2)" stroke="none"/>
      <path fill="none" d="M1102.2902 521.7571 L981.712 601.1572" clip-path="url(#clipPath2)"/>
      <path d="M975.0305 605.5569 L987.8026 603.1332 L982.5472 600.6072 L982.3029 594.7814 Z" clip-path="url(#clipPath2)" stroke="none"/>
      <path fill="none" d="M1130.4128 521.742 L1121.9214 597.6036" clip-path="url(#clipPath2)"/>
      <path d="M1121.0315 605.554 L1127.3353 594.1847 L1122.0326 596.6099 L1117.3973 593.0723 Z" clip-path="url(#clipPath2)" stroke="none"/>
      <path fill="none" d="M717.1449 229.2809 L762.4965 597.6323" clip-path="url(#clipPath2)"/>
      <path d="M763.4741 605.5723 L766.9702 593.0513 L762.3743 596.6398 L757.0452 594.2733 Z" clip-path="url(#clipPath2)" stroke="none"/>
      <path fill="none" d="M819.042 521.742 L779.8075 598.4319" clip-path="url(#clipPath2)"/>
      <path d="M776.1638 605.554 L786.0806 597.1482 L780.2629 597.5416 L777.178 592.5936 Z" clip-path="url(#clipPath2)" stroke="none"/>
      <path fill="none" d="M748.9713 605.5777 L710.4579 308.9616 L696.3252 196.3981 L688.74 126.8239 L687.4028 108.1578 L687.348 102.855 L687.7023 100.239 L688.033 99.9386 L688.4659 100.3099 L689.6388 103.0676 L693.2122 116.6435 L708.2325 181.453" clip-path="url(#clipPath2)"/>
      <path d="M710.0387 189.2465 L712.2003 176.4274 L708.0067 180.4789 L702.4585 178.6852 Z" clip-path="url(#clipPath2)" stroke="none"/>
      <path fill="none" d="M692.9127 229.2951 L578.5422 334.4143" clip-path="url(#clipPath2)"/>
      <path d="M572.6522 339.8279 L584.8707 335.3887 L579.2785 333.7375 L578.1038 328.0262 Z" clip-path="url(#clipPath2)" stroke="none"/>
      <path fill="none" d="M542.446 379.7756 L590.2582 474.6379" clip-path="url(#clipPath2)"/>
      <path d="M593.8589 481.7818 L592.9229 468.8156 L589.8082 473.7449 L583.993 473.3163 Z" clip-path="url(#clipPath2)" stroke="none"/>
    </g>
  </g>
</svg>
