<?xml version="1.0" encoding="UTF-8"?><svg xmlns="http://www.w3.org/2000/svg" xmlns:xlink="http://www.w3.org/1999/xlink" fill-opacity="1" color-rendering="auto" color-interpolation="auto" text-rendering="auto" stroke="black" stroke-linecap="square" width="1803" stroke-miterlimit="10" shape-rendering="auto" stroke-opacity="1" fill="black" stroke-dasharray="none" font-weight="normal" stroke-width="1" height="797" font-family="'Dialog'" font-style="normal" stroke-linejoin="miter" font-size="12px" stroke-dashoffset="0" image-rendering="auto">
  <!--Generated by ySVG 2.5-->
  <defs id="genericDefs"/>
  <g>
    <defs id="defs1">
      <linearGradient x1="485.9313" gradientUnits="userSpaceOnUse" x2="565.9313" y1="26.7417" y2="66.7417" id="linearGradient1" spreadMethod="reflect">
        <stop stop-opacity="1" stop-color="rgb(232,238,247)" offset="0%"/>
        <stop stop-opacity="1" stop-color="rgb(183,201,227)" offset="100%"/>
      </linearGradient>
      <linearGradient x1="231.3808" gradientUnits="userSpaceOnUse" x2="311.3809" y1="189.2858" y2="229.2858" id="linearGradient2" spreadMethod="reflect">
        <stop stop-opacity="1" stop-color="rgb(232,238,247)" offset="0%"/>
        <stop stop-opacity="1" stop-color="rgb(183,201,227)" offset="100%"/>
      </linearGradient>
      <linearGradient x1="341.3809" gradientUnits="userSpaceOnUse" x2="527.2009" y1="189.2858" y2="229.2858" id="linearGradient3" spreadMethod="reflect">
        <stop stop-opacity="1" stop-color="rgb(232,238,247)" offset="0%"/>
        <stop stop-opacity="1" stop-color="rgb(183,201,227)" offset="100%"/>
      </linearGradient>
      <linearGradient x1="557.2009" gradientUnits="userSpaceOnUse" x2="637.2009" y1="189.2858" y2="229.2858" id="linearGradient4" spreadMethod="reflect">
        <stop stop-opacity="1" stop-color="rgb(232,238,247)" offset="0%"/>
        <stop stop-opacity="1" stop-color="rgb(183,201,227)" offset="100%"/>
      </linearGradient>
      <linearGradient x1="667.2009" gradientUnits="userSpaceOnUse" x2="762.1653" y1="189.2858" y2="229.2858" id="linearGradient5" spreadMethod="reflect">
        <stop stop-opacity="1" stop-color="rgb(232,238,247)" offset="0%"/>
        <stop stop-opacity="1" stop-color="rgb(183,201,227)" offset="100%"/>
      </linearGradient>
      <linearGradient x1="623.5253" gradientUnits="userSpaceOnUse" x2="859.6479" y1="339.806" y2="379.806" id="linearGradient6" spreadMethod="reflect">
        <stop stop-opacity="1" stop-color="rgb(232,238,247)" offset="0%"/>
        <stop stop-opacity="1" stop-color="rgb(183,201,227)" offset="100%"/>
      </linearGradient>
      <linearGradient x1="896.4764" gradientUnits="userSpaceOnUse" x2="1015.5795" y1="339.806" y2="379.806" id="linearGradient7" spreadMethod="reflect">
        <stop stop-opacity="1" stop-color="rgb(232,238,247)" offset="0%"/>
        <stop stop-opacity="1" stop-color="rgb(183,201,227)" offset="100%"/>
      </linearGradient>
      <linearGradient x1="1621.3164" gradientUnits="userSpaceOnUse" x2="1701.3164" y1="468.688" y2="508.688" id="linearGradient8" spreadMethod="reflect">
        <stop stop-opacity="1" stop-color="rgb(232,238,247)" offset="0%"/>
        <stop stop-opacity="1" stop-color="rgb(204,255,204)" offset="100%"/>
      </linearGradient>
      <linearGradient x1="764.6617" gradientUnits="userSpaceOnUse" x2="869.8615" y1="484.6856" y2="524.6856" id="linearGradient9" spreadMethod="reflect">
        <stop stop-opacity="1" stop-color="rgb(232,238,247)" offset="0%"/>
        <stop stop-opacity="1" stop-color="rgb(183,201,227)" offset="100%"/>
      </linearGradient>
      <linearGradient x1="1045.5795" gradientUnits="userSpaceOnUse" x2="1164.6825" y1="339.806" y2="379.806" id="linearGradient10" spreadMethod="reflect">
        <stop stop-opacity="1" stop-color="rgb(232,238,247)" offset="0%"/>
        <stop stop-opacity="1" stop-color="rgb(183,201,227)" offset="100%"/>
      </linearGradient>
      <linearGradient x1="814.3102" gradientUnits="userSpaceOnUse" x2="919.5099" y1="597.5502" y2="637.5502" id="linearGradient11" spreadMethod="reflect">
        <stop stop-opacity="1" stop-color="rgb(232,238,247)" offset="0%"/>
        <stop stop-opacity="1" stop-color="rgb(183,201,227)" offset="100%"/>
      </linearGradient>
      <linearGradient x1="642.9045" gradientUnits="userSpaceOnUse" x2="748.1042" y1="597.5502" y2="637.5502" id="linearGradient12" spreadMethod="reflect">
        <stop stop-opacity="1" stop-color="rgb(232,238,247)" offset="0%"/>
        <stop stop-opacity="1" stop-color="rgb(183,201,227)" offset="100%"/>
      </linearGradient>
      <linearGradient x1="1156.1488" gradientUnits="userSpaceOnUse" x2="1283.1488" y1="481.7661" y2="521.7661" id="linearGradient13" spreadMethod="reflect">
        <stop stop-opacity="1" stop-color="rgb(232,238,247)" offset="0%"/>
        <stop stop-opacity="1" stop-color="rgb(183,201,227)" offset="100%"/>
      </linearGradient>
      <linearGradient x1="1330.2738" gradientUnits="userSpaceOnUse" x2="1538.2738" y1="594.6307" y2="634.6307" id="linearGradient14" spreadMethod="reflect">
        <stop stop-opacity="1" stop-color="rgb(232,238,247)" offset="0%"/>
        <stop stop-opacity="1" stop-color="rgb(183,201,227)" offset="100%"/>
      </linearGradient>
      <linearGradient x1="1204.3972" gradientUnits="userSpaceOnUse" x2="1385.3972" y1="752.1669" y2="792.1669" id="linearGradient15" spreadMethod="reflect">
        <stop stop-opacity="1" stop-color="rgb(232,238,247)" offset="0%"/>
        <stop stop-opacity="1" stop-color="rgb(183,201,227)" offset="100%"/>
      </linearGradient>
      <linearGradient x1="32.6307" gradientUnits="userSpaceOnUse" x2="206.6307" y1="484.6856" y2="524.6856" id="linearGradient16" spreadMethod="reflect">
        <stop stop-opacity="1" stop-color="rgb(232,238,247)" offset="0%"/>
        <stop stop-opacity="1" stop-color="rgb(183,201,227)" offset="100%"/>
      </linearGradient>
      <linearGradient x1="1139.0238" gradientUnits="userSpaceOnUse" x2="1300.2738" y1="594.6307" y2="634.6307" id="linearGradient17" spreadMethod="reflect">
        <stop stop-opacity="1" stop-color="rgb(232,238,247)" offset="0%"/>
        <stop stop-opacity="1" stop-color="rgb(183,201,227)" offset="100%"/>
      </linearGradient>
      <linearGradient x1="982.0238" gradientUnits="userSpaceOnUse" x2="1109.0238" y1="594.6307" y2="634.6307" id="linearGradient18" spreadMethod="reflect">
        <stop stop-opacity="1" stop-color="rgb(232,238,247)" offset="0%"/>
        <stop stop-opacity="1" stop-color="rgb(183,201,227)" offset="100%"/>
      </linearGradient>
      <linearGradient x1="1568.2738" gradientUnits="userSpaceOnUse" x2="1771.4166" y1="594.6307" y2="634.6307" id="linearGradient19" spreadMethod="reflect">
        <stop stop-opacity="1" stop-color="rgb(232,238,247)" offset="0%"/>
        <stop stop-opacity="1" stop-color="rgb(183,201,227)" offset="100%"/>
      </linearGradient>
      <linearGradient x1="231.3808" gradientUnits="userSpaceOnUse" x2="354.5332" y1="339.806" y2="379.806" id="linearGradient20" spreadMethod="reflect">
        <stop stop-opacity="1" stop-color="rgb(232,238,247)" offset="0%"/>
        <stop stop-opacity="1" stop-color="rgb(183,201,227)" offset="100%"/>
      </linearGradient>
      <linearGradient x1="402.0292" gradientUnits="userSpaceOnUse" x2="587.8492" y1="339.806" y2="379.806" id="linearGradient21" spreadMethod="reflect">
        <stop stop-opacity="1" stop-color="rgb(232,238,247)" offset="0%"/>
        <stop stop-opacity="1" stop-color="rgb(183,201,227)" offset="100%"/>
      </linearGradient>
      <linearGradient x1="-0.4345" gradientUnits="userSpaceOnUse" x2="173.5655" y1="338.5783" y2="378.5783" id="linearGradient22" spreadMethod="reflect">
        <stop stop-opacity="1" stop-color="rgb(232,238,247)" offset="0%"/>
        <stop stop-opacity="1" stop-color="rgb(183,201,227)" offset="100%"/>
      </linearGradient>
      <clipPath clipPathUnits="userSpaceOnUse" id="clipPath1">
        <path d="M0 0 L1803 0 L1803 797 L0 797 L0 0 Z"/>
      </clipPath>
      <clipPath clipPathUnits="userSpaceOnUse" id="clipPath2">
        <path d="M-16 11 L1787 11 L1787 808 L-16 808 L-16 11 Z"/>
      </clipPath>
    </defs>
    <g fill="white" text-rendering="geometricPrecision" shape-rendering="geometricPrecision" transform="translate(16,-11)" stroke="white">
      <rect x="-16" width="1803" height="797" y="11" clip-path="url(#clipPath2)" stroke="none"/>
    </g>
    <g fill="url(#linearGradient1)" text-rendering="geometricPrecision" shape-rendering="geometricPrecision" transform="matrix(1,0,0,1,16,-11)" stroke="url(#linearGradient1)">
      <path d="M485.9313 26.7417 L565.9313 26.7417 L565.9313 66.7417 L485.9313 66.7417 Z" stroke="none" clip-path="url(#clipPath2)"/>
    </g>
    <g text-rendering="geometricPrecision" stroke-miterlimit="1.45" shape-rendering="geometricPrecision" transform="matrix(1,0,0,1,16,-11)" stroke-linecap="butt">
      <path fill="none" d="M485.9313 26.7417 L565.9313 26.7417 L565.9313 66.7417 L485.9313 66.7417 Z" clip-path="url(#clipPath2)"/>
      <text x="512.9264" xml:space="preserve" y="51.4556" clip-path="url(#clipPath2)" font-family="sans-serif" stroke="none">main</text>
    </g>
    <g fill="url(#linearGradient2)" text-rendering="geometricPrecision" shape-rendering="geometricPrecision" transform="matrix(1,0,0,1,16,-11)" stroke="url(#linearGradient2)">
      <path d="M231.3808 189.2858 L311.3809 189.2858 L311.3809 229.2858 L231.3808 229.2858 Z" stroke="none" clip-path="url(#clipPath2)"/>
    </g>
    <g text-rendering="geometricPrecision" stroke-miterlimit="1.45" shape-rendering="geometricPrecision" transform="matrix(1,0,0,1,16,-11)" stroke-linecap="butt">
      <path fill="none" d="M231.3808 189.2858 L311.3809 189.2858 L311.3809 229.2858 L231.3808 229.2858 Z" clip-path="url(#clipPath2)"/>
      <text x="242.3652" xml:space="preserve" y="213.9997" clip-path="url(#clipPath2)" font-family="sans-serif" stroke="none">printUsage</text>
    </g>
    <g fill="url(#linearGradient3)" text-rendering="geometricPrecision" shape-rendering="geometricPrecision" transform="matrix(1,0,0,1,16,-11)" stroke="url(#linearGradient3)">
      <path d="M341.3809 189.2858 L527.2009 189.2858 L527.2009 229.2858 L341.3809 229.2858 Z" stroke="none" clip-path="url(#clipPath2)"/>
    </g>
    <g text-rendering="geometricPrecision" stroke-miterlimit="1.45" shape-rendering="geometricPrecision" transform="matrix(1,0,0,1,16,-11)" stroke-linecap="butt">
      <path fill="none" d="M341.3809 189.2858 L527.2009 189.2858 L527.2009 229.2858 L341.3809 229.2858 Z" clip-path="url(#clipPath2)"/>
      <text x="346.2508" xml:space="preserve" y="213.9997" clip-path="url(#clipPath2)" font-family="sans-serif" stroke="none">readPlaceholdersFromProperties</text>
    </g>
    <g fill="url(#linearGradient4)" text-rendering="geometricPrecision" shape-rendering="geometricPrecision" transform="matrix(1,0,0,1,16,-11)" stroke="url(#linearGradient4)">
      <path d="M557.2009 189.2858 L637.2009 189.2858 L637.2009 229.2858 L557.2009 229.2858 Z" stroke="none" clip-path="url(#clipPath2)"/>
    </g>
    <g text-rendering="geometricPrecision" stroke-miterlimit="1.45" shape-rendering="geometricPrecision" transform="matrix(1,0,0,1,16,-11)" stroke-linecap="butt">
      <path fill="none" d="M557.2009 189.2858 L637.2009 189.2858 L637.2009 229.2858 L557.2009 229.2858 Z" clip-path="url(#clipPath2)"/>
      <text x="568.1852" xml:space="preserve" y="213.9997" clip-path="url(#clipPath2)" font-family="sans-serif" stroke="none">printUsage</text>
    </g>
    <g fill="url(#linearGradient5)" text-rendering="geometricPrecision" shape-rendering="geometricPrecision" transform="matrix(1,0,0,1,16,-11)" stroke="url(#linearGradient5)">
      <path d="M667.2009 189.2858 L762.1653 189.2858 L762.1653 229.2858 L667.2009 229.2858 Z" stroke="none" clip-path="url(#clipPath2)"/>
    </g>
    <g text-rendering="geometricPrecision" stroke-miterlimit="1.45" shape-rendering="geometricPrecision" transform="matrix(1,0,0,1,16,-11)" stroke-linecap="butt">
      <path fill="none" d="M667.2009 189.2858 L762.1653 189.2858 L762.1653 229.2858 L667.2009 229.2858 Z" clip-path="url(#clipPath2)"/>
      <text x="669.6772" xml:space="preserve" y="213.9997" clip-path="url(#clipPath2)" font-family="sans-serif" stroke="none">processFileOrDir</text>
    </g>
    <g fill="url(#linearGradient6)" text-rendering="geometricPrecision" shape-rendering="geometricPrecision" transform="matrix(1,0,0,1,16,-11)" stroke="url(#linearGradient6)">
      <path d="M623.5253 339.806 L859.6479 339.806 L859.6479 379.806 L623.5253 379.806 Z" stroke="none" clip-path="url(#clipPath2)"/>
    </g>
    <g text-rendering="geometricPrecision" stroke-miterlimit="1.45" shape-rendering="geometricPrecision" transform="matrix(1,0,0,1,16,-11)" stroke-linecap="butt">
      <path fill="none" d="M623.5253 339.806 L859.6479 339.806 L859.6479 379.806 L623.5253 379.806 Z" clip-path="url(#clipPath2)"/>
      <text x="630.5544" xml:space="preserve" y="364.5199" clip-path="url(#clipPath2)" font-family="sans-serif" stroke="none">getNextFileNameFromFileTemplateName</text>
    </g>
    <g fill="url(#linearGradient7)" text-rendering="geometricPrecision" shape-rendering="geometricPrecision" transform="matrix(1,0,0,1,16,-11)" stroke="url(#linearGradient7)">
      <path d="M896.4764 339.806 L1015.5795 339.806 L1015.5795 379.806 L896.4764 379.806 Z" stroke="none" clip-path="url(#clipPath2)"/>
    </g>
    <g text-rendering="geometricPrecision" stroke-miterlimit="1.45" shape-rendering="geometricPrecision" transform="matrix(1,0,0,1,16,-11)" stroke-linecap="butt">
      <path fill="none" d="M896.4764 339.806 L1015.5795 339.806 L1015.5795 379.806 L896.4764 379.806 Z" clip-path="url(#clipPath2)"/>
      <text x="902.6783" xml:space="preserve" y="364.5199" clip-path="url(#clipPath2)" font-family="sans-serif" stroke="none">replaceDirWithCopy</text>
    </g>
    <g fill="url(#linearGradient8)" text-rendering="geometricPrecision" shape-rendering="geometricPrecision" transform="matrix(1,0,0,1,16,-11)" stroke="url(#linearGradient8)">
      <path d="M1621.3164 468.688 L1701.3164 468.688 L1701.3164 508.688 L1621.3164 508.688 Z" stroke="none" clip-path="url(#clipPath2)"/>
    </g>
    <g text-rendering="geometricPrecision" stroke-miterlimit="1.45" shape-rendering="geometricPrecision" transform="matrix(1,0,0,1,16,-11)" stroke-linecap="butt">
      <path fill="none" d="M1621.3164 468.688 L1701.3164 468.688 L1701.3164 508.688 L1621.3164 508.688 Z" clip-path="url(#clipPath2)"/>
      <text x="1630.625" xml:space="preserve" y="493.4019" clip-path="url(#clipPath2)" font-family="sans-serif" stroke="none">deepDelete</text>
    </g>
    <g fill="url(#linearGradient9)" text-rendering="geometricPrecision" shape-rendering="geometricPrecision" transform="matrix(1,0,0,1,16,-11)" stroke="url(#linearGradient9)">
      <path d="M764.6617 484.6856 L869.8615 484.6856 L869.8615 524.6856 L764.6617 524.6856 Z" stroke="none" clip-path="url(#clipPath2)"/>
    </g>
    <g text-rendering="geometricPrecision" stroke-miterlimit="1.45" shape-rendering="geometricPrecision" transform="matrix(1,0,0,1,16,-11)" stroke-linecap="butt">
      <path fill="none" d="M764.6617 484.6856 L869.8615 484.6856 L869.8615 524.6856 L764.6617 524.6856 Z" clip-path="url(#clipPath2)"/>
      <text x="768.9042" xml:space="preserve" y="509.3994" clip-path="url(#clipPath2)" font-family="sans-serif" stroke="none">replaceDirContent</text>
    </g>
    <g fill="url(#linearGradient10)" text-rendering="geometricPrecision" shape-rendering="geometricPrecision" transform="matrix(1,0,0,1,16,-11)" stroke="url(#linearGradient10)">
      <path d="M1045.5795 339.806 L1164.6825 339.806 L1164.6825 379.806 L1045.5795 379.806 Z" stroke="none" clip-path="url(#clipPath2)"/>
    </g>
    <g text-rendering="geometricPrecision" stroke-miterlimit="1.45" shape-rendering="geometricPrecision" transform="matrix(1,0,0,1,16,-11)" stroke-linecap="butt">
      <path fill="none" d="M1045.5795 339.806 L1164.6825 339.806 L1164.6825 379.806 L1045.5795 379.806 Z" clip-path="url(#clipPath2)"/>
      <text x="1049.7775" xml:space="preserve" y="364.5199" clip-path="url(#clipPath2)" font-family="sans-serif" stroke="none">replaceFileWithCopy</text>
    </g>
    <g fill="url(#linearGradient11)" text-rendering="geometricPrecision" shape-rendering="geometricPrecision" transform="matrix(1,0,0,1,16,-11)" stroke="url(#linearGradient11)">
      <path d="M814.3102 597.5502 L919.5099 597.5502 L919.5099 637.5502 L814.3102 637.5502 Z" stroke="none" clip-path="url(#clipPath2)"/>
    </g>
    <g text-rendering="geometricPrecision" stroke-miterlimit="1.45" shape-rendering="geometricPrecision" transform="matrix(1,0,0,1,16,-11)" stroke-linecap="butt">
      <path fill="none" d="M814.3102 597.5502 L919.5099 597.5502 L919.5099 637.5502 L814.3102 637.5502 Z" clip-path="url(#clipPath2)"/>
      <text x="839.5555" xml:space="preserve" y="622.2641" clip-path="url(#clipPath2)" font-family="sans-serif" stroke="none">deepCopy</text>
    </g>
    <g fill="url(#linearGradient12)" text-rendering="geometricPrecision" shape-rendering="geometricPrecision" transform="matrix(1,0,0,1,16,-11)" stroke="url(#linearGradient12)">
      <path d="M642.9045 597.5502 L748.1042 597.5502 L748.1042 637.5502 L642.9045 637.5502 Z" stroke="none" clip-path="url(#clipPath2)"/>
    </g>
    <g text-rendering="geometricPrecision" stroke-miterlimit="1.45" shape-rendering="geometricPrecision" transform="matrix(1,0,0,1,16,-11)" stroke-linecap="butt">
      <path fill="none" d="M642.9045 597.5502 L748.1042 597.5502 L748.1042 637.5502 L642.9045 637.5502 Z" clip-path="url(#clipPath2)"/>
      <text x="645.8168" xml:space="preserve" y="622.2641" clip-path="url(#clipPath2)" font-family="sans-serif" stroke="none">processDirContent</text>
    </g>
    <g fill="url(#linearGradient13)" text-rendering="geometricPrecision" shape-rendering="geometricPrecision" transform="matrix(1,0,0,1,16,-11)" stroke="url(#linearGradient13)">
      <path d="M1156.1488 481.7661 L1283.1488 481.7661 L1283.1488 521.7661 L1156.1488 521.7661 Z" stroke="none" clip-path="url(#clipPath2)"/>
    </g>
    <g text-rendering="geometricPrecision" stroke-miterlimit="1.45" shape-rendering="geometricPrecision" transform="matrix(1,0,0,1,16,-11)" stroke-linecap="butt">
      <path fill="none" d="M1156.1488 481.7661 L1283.1488 481.7661 L1283.1488 521.7661 L1156.1488 521.7661 Z" clip-path="url(#clipPath2)"/>
      <text x="1169.2875" xml:space="preserve" y="506.4799" clip-path="url(#clipPath2)" font-family="sans-serif" stroke="none">replaceFileContent</text>
    </g>
    <g fill="url(#linearGradient14)" text-rendering="geometricPrecision" shape-rendering="geometricPrecision" transform="matrix(1,0,0,1,16,-11)" stroke="url(#linearGradient14)">
      <path d="M1330.2738 594.6307 L1538.2738 594.6307 L1538.2738 634.6307 L1330.2738 634.6307 Z" stroke="none" clip-path="url(#clipPath2)"/>
    </g>
    <g text-rendering="geometricPrecision" stroke-miterlimit="1.45" shape-rendering="geometricPrecision" transform="matrix(1,0,0,1,16,-11)" stroke-linecap="butt">
      <path fill="none" d="M1330.2738 594.6307 L1538.2738 594.6307 L1538.2738 634.6307 L1330.2738 634.6307 Z" clip-path="url(#clipPath2)"/>
      <text x="1340.5619" xml:space="preserve" y="619.3446" clip-path="url(#clipPath2)" font-family="sans-serif" stroke="none">processLinesWithPlaceholderBlock</text>
    </g>
    <g fill="url(#linearGradient15)" text-rendering="geometricPrecision" shape-rendering="geometricPrecision" transform="matrix(1,0,0,1,16,-11)" stroke="url(#linearGradient15)">
      <path d="M1204.3972 752.1669 L1385.3972 752.1669 L1385.3972 792.1669 L1204.3972 792.1669 Z" stroke="none" clip-path="url(#clipPath2)"/>
    </g>
    <g text-rendering="geometricPrecision" stroke-miterlimit="1.45" shape-rendering="geometricPrecision" transform="matrix(1,0,0,1,16,-11)" stroke-linecap="butt">
      <path fill="none" d="M1204.3972 752.1669 L1385.3972 752.1669 L1385.3972 792.1669 L1204.3972 792.1669 Z" clip-path="url(#clipPath2)"/>
      <text x="1213.8621" xml:space="preserve" y="776.8807" clip-path="url(#clipPath2)" font-family="sans-serif" stroke="none">replaceAllOccurrencesInString</text>
    </g>
    <g fill="url(#linearGradient16)" text-rendering="geometricPrecision" shape-rendering="geometricPrecision" transform="matrix(1,0,0,1,16,-11)" stroke="url(#linearGradient16)">
      <path d="M32.6307 484.6856 L206.6307 484.6856 L206.6307 524.6856 L32.6307 524.6856 Z" stroke="none" clip-path="url(#clipPath2)"/>
    </g>
    <g text-rendering="geometricPrecision" stroke-miterlimit="1.45" shape-rendering="geometricPrecision" transform="matrix(1,0,0,1,16,-11)" stroke-linecap="butt">
      <path fill="none" d="M32.6307 484.6856 L206.6307 484.6856 L206.6307 524.6856 L32.6307 524.6856 Z" clip-path="url(#clipPath2)"/>
      <text x="46.9305" xml:space="preserve" y="509.3994" clip-path="url(#clipPath2)" font-family="sans-serif" stroke="none">getPlaceholdersFromString</text>
    </g>
    <g fill="url(#linearGradient17)" text-rendering="geometricPrecision" shape-rendering="geometricPrecision" transform="matrix(1,0,0,1,16,-11)" stroke="url(#linearGradient17)">
      <path d="M1139.0238 594.6307 L1300.2738 594.6307 L1300.2738 634.6307 L1139.0238 634.6307 Z" stroke="none" clip-path="url(#clipPath2)"/>
    </g>
    <g text-rendering="geometricPrecision" stroke-miterlimit="1.45" shape-rendering="geometricPrecision" transform="matrix(1,0,0,1,16,-11)" stroke-linecap="butt">
      <path fill="none" d="M1139.0238 594.6307 L1300.2738 594.6307 L1300.2738 634.6307 L1139.0238 634.6307 Z" clip-path="url(#clipPath2)"/>
      <text x="1156.9388" xml:space="preserve" y="619.3446" clip-path="url(#clipPath2)" font-family="sans-serif" stroke="none">isBeginPlaceholderLine</text>
    </g>
    <g fill="url(#linearGradient18)" text-rendering="geometricPrecision" shape-rendering="geometricPrecision" transform="matrix(1,0,0,1,16,-11)" stroke="url(#linearGradient18)">
      <path d="M982.0238 594.6307 L1109.0238 594.6307 L1109.0238 634.6307 L982.0238 634.6307 Z" stroke="none" clip-path="url(#clipPath2)"/>
    </g>
    <g text-rendering="geometricPrecision" stroke-miterlimit="1.45" shape-rendering="geometricPrecision" transform="matrix(1,0,0,1,16,-11)" stroke-linecap="butt">
      <path fill="none" d="M982.0238 594.6307 L1109.0238 594.6307 L1109.0238 634.6307 L982.0238 634.6307 Z" clip-path="url(#clipPath2)"/>
      <text x="987.4838" xml:space="preserve" y="619.3446" clip-path="url(#clipPath2)" font-family="sans-serif" stroke="none">isEndPlaceholderLine</text>
    </g>
    <g fill="url(#linearGradient19)" text-rendering="geometricPrecision" shape-rendering="geometricPrecision" transform="matrix(1,0,0,1,16,-11)" stroke="url(#linearGradient19)">
      <path d="M1568.2738 594.6307 L1771.4166 594.6307 L1771.4166 634.6307 L1568.2738 634.6307 Z" stroke="none" clip-path="url(#clipPath2)"/>
    </g>
    <g text-rendering="geometricPrecision" stroke-miterlimit="1.45" shape-rendering="geometricPrecision" transform="matrix(1,0,0,1,16,-11)" stroke-linecap="butt">
      <path fill="none" d="M1568.2738 594.6307 L1771.4166 594.6307 L1771.4166 634.6307 L1568.2738 634.6307 Z" clip-path="url(#clipPath2)"/>
      <text x="1588.8101" xml:space="preserve" y="619.3446" clip-path="url(#clipPath2)" font-family="sans-serif" stroke="none">replaceAllOccurrencesInString</text>
    </g>
    <g fill="url(#linearGradient20)" text-rendering="geometricPrecision" shape-rendering="geometricPrecision" transform="matrix(1,0,0,1,16,-11)" stroke="url(#linearGradient20)">
      <path d="M231.3808 339.806 L354.5332 339.806 L354.5332 379.806 L231.3808 379.806 Z" stroke="none" clip-path="url(#clipPath2)"/>
    </g>
    <g text-rendering="geometricPrecision" stroke-miterlimit="1.45" shape-rendering="geometricPrecision" transform="matrix(1,0,0,1,16,-11)" stroke-linecap="butt">
      <path fill="none" d="M231.3808 339.806 L354.5332 339.806 L354.5332 379.806 L231.3808 379.806 Z" clip-path="url(#clipPath2)"/>
      <text x="241.6025" xml:space="preserve" y="364.5199" clip-path="url(#clipPath2)" font-family="sans-serif" stroke="none">processDirContent </text>
    </g>
    <g fill="url(#linearGradient21)" text-rendering="geometricPrecision" shape-rendering="geometricPrecision" transform="matrix(1,0,0,1,16,-11)" stroke="url(#linearGradient21)">
      <path d="M402.0292 339.806 L587.8492 339.806 L587.8492 379.806 L402.0292 379.806 Z" stroke="none" clip-path="url(#clipPath2)"/>
    </g>
    <g text-rendering="geometricPrecision" stroke-miterlimit="1.45" shape-rendering="geometricPrecision" transform="matrix(1,0,0,1,16,-11)" stroke-linecap="butt">
      <path fill="none" d="M402.0292 339.806 L587.8492 339.806 L587.8492 379.806 L402.0292 379.806 Z" clip-path="url(#clipPath2)"/>
      <text x="407.2303" xml:space="preserve" y="364.5199" clip-path="url(#clipPath2)" font-family="sans-serif" stroke="none">getPlaceholdersFromFileContent</text>
    </g>
    <g fill="url(#linearGradient22)" text-rendering="geometricPrecision" shape-rendering="geometricPrecision" transform="matrix(1,0,0,1,16,-11)" stroke="url(#linearGradient22)">
      <path d="M-0.4345 338.5783 L173.5655 338.5783 L173.5655 378.5783 L-0.4345 378.5783 Z" stroke="none" clip-path="url(#clipPath2)"/>
    </g>
    <g text-rendering="geometricPrecision" stroke-miterlimit="1.45" shape-rendering="geometricPrecision" transform="matrix(1,0,0,1,16,-11)" stroke-linecap="butt">
      <path fill="none" d="M-0.4345 338.5783 L173.5655 338.5783 L173.5655 378.5783 L-0.4345 378.5783 Z" clip-path="url(#clipPath2)"/>
      <text x="13.8653" xml:space="preserve" y="363.2922" clip-path="url(#clipPath2)" font-family="sans-serif" stroke="none">getPlaceholdersFromString</text>
    </g>
    <g text-rendering="geometricPrecision" stroke-miterlimit="1.45" shape-rendering="geometricPrecision" transform="matrix(1,0,0,1,16,-11)" stroke-linecap="butt">
      <path fill="none" d="M494.6407 66.7224 L309.4376 184.9845" clip-path="url(#clipPath2)"/>
    </g>
    <g text-rendering="geometricPrecision" stroke-miterlimit="1.45" shape-rendering="geometricPrecision" transform="matrix(1,0,0,1,16,-11)" stroke-linecap="butt">
      <path d="M302.695 189.29 L315.4998 187.0459 L310.2804 184.4463 L310.118 178.6176 Z" stroke="none" clip-path="url(#clipPath2)"/>
      <path fill="none" d="M514.6776 66.7026 L449.5045 182.3011" clip-path="url(#clipPath2)"/>
      <path d="M445.5756 189.2699 L455.8245 181.2723 L449.9956 181.43 L447.1135 176.3611 Z" clip-path="url(#clipPath2)" stroke="none"/>
      <path fill="none" d="M534.6834 66.7026 L585.2121 181.9432" clip-path="url(#clipPath2)"/>
      <path d="M588.4246 189.2698 L588.185 176.272 L584.8105 181.0273 L579.0267 180.2877 Z" clip-path="url(#clipPath2)" stroke="none"/>
      <path fill="none" d="M549.1335 66.7224 L685.4012 184.0697" clip-path="url(#clipPath2)"/>
      <path d="M691.4633 189.29 L685.6329 177.6708 L684.6435 183.4172 L679.1075 185.2483 Z" clip-path="url(#clipPath2)" stroke="none"/>
      <path fill="none" d="M718.2628 229.3135 L736.6087 331.9555" clip-path="url(#clipPath2)"/>
      <path d="M738.0163 339.8307 L740.8269 327.1382 L736.4327 330.9711 L730.9829 328.8976 Z" clip-path="url(#clipPath2)" stroke="none"/>
      <path fill="none" d="M746.7662 229.2951 L917.1813 335.5785" clip-path="url(#clipPath2)"/>
      <path d="M923.9694 339.812 L916.4333 329.2192 L916.3328 335.0493 L911.1414 337.7042 Z" clip-path="url(#clipPath2)" stroke="none"/>
      <path fill="none" d="M762.1476 223.2951 L1613.663 474.623" clip-path="url(#clipPath2)"/>
      <path d="M1621.3357 476.8876 L1611.2419 468.6951 L1612.7039 474.3399 L1608.4111 478.2861 Z" clip-path="url(#clipPath2)" stroke="none"/>
      <path fill="none" d="M1015.5625 370.6852 L1613.4419 479.9396" clip-path="url(#clipPath2)"/>
      <path d="M1621.3115 481.3777 L1610.4058 474.302 L1612.4581 479.7598 L1608.6082 484.1391 Z" clip-path="url(#clipPath2)" stroke="none"/>
      <path fill="none" d="M1621.3406 476.5561 L1619.7681 476.9774 L1616.1923 478.3228 L1612.7283 480.0349 L1609.4038 482.1158 L1606.2463 484.5677 L1603.3519 487.3251 L1600.7993 490.303 L1598.5908 493.4737 L1596.7284 496.8094 L1595.2141 500.2825 L1594.05 503.8654 L1593.2382 507.5302 L1592.7808 511.2494 L1592.6797 514.9953 L1592.9371 518.7402 L1593.5551 522.4563 L1594.5358 526.1161 L1595.881 529.6918 L1597.5931 533.1558 L1599.6741 536.4804 L1602.126 539.6378 L1604.8834 542.5323 L1607.8613 545.0848 L1611.032 547.2933 L1614.3677 549.1557 L1617.8408 550.67 L1621.4236 551.8341 L1625.0885 552.6459 L1628.8076 553.1034 L1632.5536 553.2045 L1636.2985 552.947 L1640.0145 552.329 L1643.6743 551.3484 L1647.2501 550.0031 L1650.7141 548.291 L1654.0387 546.2101 L1657.196 543.7582 L1660.0906 541.0007 L1662.6431 538.0228 L1664.8516 534.8522 L1666.714 531.5165 L1668.2283 528.0433 L1669.3923 524.4605 L1670.2042 520.7957 L1670.6616 517.0765 L1670.6724 516.6794 L1670.6636 516.5798" clip-path="url(#clipPath2)"/>
      <path d="M1670.3517 508.5859 L1665.8232 520.7717 L1670.7025 517.579 L1675.8157 520.3818 Z" clip-path="url(#clipPath2)" stroke="none"/>
      <path fill="none" d="M936.8866 379.7906 L841.9248 478.9359" clip-path="url(#clipPath2)"/>
      <path d="M836.3911 484.7133 L848.3025 479.5057 L842.6165 478.2137 L841.0807 472.5887 Z" clip-path="url(#clipPath2)" stroke="none"/>
      <path fill="none" d="M762.1783 227.5955 L1045.7965 336.9322" clip-path="url(#clipPath2)"/>
      <path d="M1053.2611 339.8098 L1043.8628 330.828 L1044.8635 336.5725 L1040.2657 340.1587 Z" clip-path="url(#clipPath2)" stroke="none"/>
      <path fill="none" d="M1164.7078 373.6114 L1613.5432 477.6178" clip-path="url(#clipPath2)"/>
      <path d="M1621.3367 479.4237 L1610.7751 471.8439 L1612.569 477.3921 L1608.5177 481.5858 Z" clip-path="url(#clipPath2)" stroke="none"/>
      <path fill="none" d="M1164.7078 373.6114 L1613.5432 477.6178" clip-path="url(#clipPath2)"/>
      <path d="M1621.3367 479.4237 L1610.7751 471.8439 L1612.569 477.3921 L1608.5177 481.5858 Z" clip-path="url(#clipPath2)" stroke="none"/>
      <path fill="none" d="M826.0495 524.6628 L854.8902 590.2258" clip-path="url(#clipPath2)"/>
      <path d="M858.1115 597.5486 L857.8563 584.5511 L854.4875 589.3104 L848.7028 588.5776 Z" clip-path="url(#clipPath2)" stroke="none"/>
      <path fill="none" d="M795.7104 524.6628 L722.9245 592.1328" clip-path="url(#clipPath2)"/>
      <path d="M717.0574 597.5713 L729.2571 593.0804 L723.6579 591.4529 L722.4589 585.7466 Z" clip-path="url(#clipPath2)" stroke="none"/>
      <path fill="none" d="M672.9548 637.5567 L656.3627 652.8611 L638.0781 669.2812 L621.0345 683.8889 L605.6456 696.0798 L592.325 705.25 L581.4863 710.7952 L573.5432 712.1111 L568.9094 708.5938 L567.9985 699.6389 L571.2241 684.6423 L579 663 L591.5339 634.4074 L608.2099 599.7593 L628.2062 560.25 L650.7012 517.0741 L674.873 471.4259 L699.9 424.5 L724.9603 377.4908 L749.2321 331.5926 L771.8937 288 L792.1234 247.9074 L809.0994 212.5092 L822 183 L830.2083 160.2766 L833.9275 144.0463 L833.5656 133.7188 L829.5309 128.7037 L822.2313 128.4109 L812.075 132.25 L799.4701 139.6308 L784.8247 149.963 L768.5469 162.6562 L751.0447 177.1204 L742.8527 184.1168" clip-path="url(#clipPath2)"/>
      <path d="M736.7693 189.3122 L749.1415 185.3212 L743.6131 183.4673 L742.6472 177.7169 Z" clip-path="url(#clipPath2)" stroke="none"/>
      <path fill="none" d="M1121.2631 379.8038 L1198.5084 475.5598" clip-path="url(#clipPath2)"/>
      <path d="M1203.5314 481.7864 L1199.8885 469.3072 L1197.8806 474.7815 L1192.1053 475.5859 Z" clip-path="url(#clipPath2)" stroke="none"/>
      <path fill="none" d="M1257.6641 521.7571 L1389.1202 590.8859" clip-path="url(#clipPath2)"/>
      <path d="M1396.2009 594.6094 L1387.9071 584.5988 L1388.2352 590.4205 L1383.2528 593.4495 Z" clip-path="url(#clipPath2)" stroke="none"/>
      <path fill="none" d="M1447.3087 634.635 L1449.5396 638.0938 L1464.9166 661.75 L1479.9688 684.5312 L1494.5333 706 L1508.4479 725.7188 L1521.55 743.25 L1533.6771 758.1562 L1544.6666 770 L1554.3562 778.3438 L1562.5834 782.75 L1569.1854 782.7812 L1574 778 L1576.9188 768.1765 L1578.0509 753.912 L1577.5593 736.0156 L1575.6074 715.2963 L1572.3583 692.5631 L1567.975 668.625 L1562.621 644.2911 L1556.4592 620.3704 L1549.6531 597.6719 L1542.3657 577.0046 L1534.7603 559.1777 L1527 545 L1519.2207 535.0839 L1511.4491 529.2546 L1503.6843 527.1406 L1495.9259 528.3704 L1488.1731 532.5723 L1480.425 539.375 L1472.6812 548.4068 L1464.9408 559.2963 L1457.2031 571.6719 L1449.4677 585.162 L1448.1362 587.6124" clip-path="url(#clipPath2)"/>
      <path d="M1444.3165 594.6416 L1454.4393 586.4851 L1448.6136 586.7337 L1445.6528 581.7104 Z" clip-path="url(#clipPath2)" stroke="none"/>
      <path fill="none" d="M1416.5625 634.6497 L1317.8718 746.199" clip-path="url(#clipPath2)"/>
      <path d="M1312.5708 752.1906 L1324.2671 746.5163 L1318.5344 745.4501 L1316.7776 739.8901 Z" clip-path="url(#clipPath2)" stroke="none"/>
      <path fill="none" d="M1219.6488 521.7433 L1219.6488 586.6291" clip-path="url(#clipPath2)"/>
      <path d="M1219.6488 594.6291 L1224.6488 582.6291 L1219.6488 585.6291 L1214.6488 582.6291 Z" clip-path="url(#clipPath2)" stroke="none"/>
      <path fill="none" d="M1188.807 521.7571 L1083.1254 590.2581" clip-path="url(#clipPath2)"/>
      <path d="M1076.4122 594.6094 L1089.2015 592.2781 L1083.9645 589.7142 L1083.7623 583.8867 Z" clip-path="url(#clipPath2)" stroke="none"/>
      <path fill="none" d="M1283.15 517.6859 L1582.2633 592.6739" clip-path="url(#clipPath2)"/>
      <path d="M1590.0232 594.6193 L1579.5992 586.8513 L1581.2933 592.4307 L1577.1675 596.5511 Z" clip-path="url(#clipPath2)" stroke="none"/>
      <path fill="none" d="M667.1926 226.2359 L356.5446 337.1107" clip-path="url(#clipPath2)"/>
      <path d="M349.0101 339.7998 L361.9926 340.4751 L357.4864 336.7745 L358.6311 331.057 Z" clip-path="url(#clipPath2)" stroke="none"/>
      <path fill="none" d="M300.5639 379.842 L349.0973 507.6754 L355.1527 521.2925 L358.4159 526.9717 L361.8359 531.8979 L365.4128 536.0712 L369.1467 539.4916 L373.0375 542.1591 L377.0852 544.0736 L381.2899 545.2352 L385.6515 545.6439 L390.1699 545.2996 L394.8453 544.2024 L399.6777 542.3522 L404.6669 539.7492 L409.8131 536.3932 L415.1161 532.2843 L426.1931 521.8076 L437.8977 508.3193 L450.23 491.8192 L463.19 472.3074 L476.7777 449.7839 L490.9931 424.2487 L505.8362 395.7017 L521.3069 364.143 L549.3684 305.3616 L579.239 244.5499 L605.7124 194.3731 L617.6751 173.2727 L628.7886 154.8311 L639.0528 139.0481 L648.4677 125.9239 L657.0333 115.4583 L664.7495 107.6515 L671.6165 102.5034 L674.7316 100.9264 L677.6343 100.014 L680.3246 99.7663 L682.8027 100.1833 L685.0684 101.265 L687.1218 103.0113 L688.9629 105.4223 L690.5916 108.498 L693.2122 116.6435 L708.2325 181.453" clip-path="url(#clipPath2)"/>
      <path d="M710.0387 189.2465 L712.2003 176.4274 L708.0067 180.4789 L702.4585 178.6852 Z" clip-path="url(#clipPath2)" stroke="none"/>
      <path fill="none" d="M685.4715 229.2951 L530.7285 335.291" clip-path="url(#clipPath2)"/>
      <path d="M524.1284 339.812 L536.8541 337.1556 L531.5535 334.7259 L531.2029 328.9055 Z" clip-path="url(#clipPath2)" stroke="none"/>
      <path fill="none" d="M455.2704 379.8108 L180.9243 481.8813" clip-path="url(#clipPath2)"/>
      <path d="M173.4265 484.6709 L186.4168 485.1726 L181.8616 481.5326 L182.9297 475.8003 Z" clip-path="url(#clipPath2)" stroke="none"/>
      <path fill="none" d="M667.1749 220.127 L155.8625 336.8062" clip-path="url(#clipPath2)"/>
      <path d="M148.063 338.586 L160.8746 340.791 L156.8374 336.5837 L158.6498 331.0416 Z" clip-path="url(#clipPath2)" stroke="none"/>
    </g>
  </g>
</svg>
